<svg xmlns="http://www.w3.org/2000/svg" xmlns:xlink="http://www.w3.org/1999/xlink" width="548" height="618" viewBox="0 0 548 618"><defs><style>.a{fill:none;}.b{opacity:0.163;clip-path:url(#a);}.c{fill:#b5b5b5;}</style><clipPath id="a"><rect class="a" width="548" height="618"/></clipPath></defs><g class="b"><g transform="translate(-1152 -427)"><circle class="c" cx="13.5" cy="13.5" r="13.5" transform="translate(1169 444)"/></g><g transform="translate(-1085 -427)"><circle class="c" cx="13.5" cy="13.5" r="13.5" transform="translate(1169 444)"/></g><g transform="translate(-1018 -427)"><circle class="c" cx="13.5" cy="13.5" r="13.5" transform="translate(1169 444)"/></g><g transform="translate(-951 -427)"><circle class="c" cx="13.5" cy="13.5" r="13.5" transform="translate(1169 444)"/></g><g transform="translate(-884 -427)"><circle class="c" cx="13.5" cy="13.5" r="13.5" transform="translate(1169 444)"/></g><g transform="translate(-817 -427)"><circle class="c" cx="13.5" cy="13.5" r="13.5" transform="translate(1169 444)"/></g><g transform="translate(-750 -427)"><circle class="c" cx="13.5" cy="13.5" r="13.5" transform="translate(1169 444)"/></g><g transform="translate(-683 -427)"><circle class="c" cx="13.5" cy="13.5" r="13.5" transform="translate(1169 444)"/></g><g transform="translate(-1152 -359)"><circle class="c" cx="13.5" cy="13.5" r="13.5" transform="translate(1169 444)"/></g><g transform="translate(-1085 -359)"><circle class="c" cx="13.5" cy="13.5" r="13.5" transform="translate(1169 444)"/></g><g transform="translate(-1018 -359)"><circle class="c" cx="13.5" cy="13.5" r="13.5" transform="translate(1169 444)"/></g><g transform="translate(-951 -359)"><circle class="c" cx="13.5" cy="13.5" r="13.5" transform="translate(1169 444)"/></g><g transform="translate(-884 -359)"><circle class="c" cx="13.5" cy="13.5" r="13.5" transform="translate(1169 444)"/></g><g transform="translate(-817 -359)"><circle class="c" cx="13.5" cy="13.5" r="13.5" transform="translate(1169 444)"/></g><g transform="translate(-750 -359)"><circle class="c" cx="13.5" cy="13.5" r="13.5" transform="translate(1169 444)"/></g><g transform="translate(-683 -359)"><circle class="c" cx="13.5" cy="13.5" r="13.5" transform="translate(1169 444)"/></g><g transform="translate(-1152 -291)"><circle class="c" cx="13.5" cy="13.5" r="13.5" transform="translate(1169 444)"/></g><g transform="translate(-1085 -291)"><circle class="c" cx="13.5" cy="13.5" r="13.5" transform="translate(1169 444)"/></g><g transform="translate(-1018 -291)"><circle class="c" cx="13.5" cy="13.5" r="13.5" transform="translate(1169 444)"/></g><g transform="translate(-951 -291)"><circle class="c" cx="13.5" cy="13.5" r="13.5" transform="translate(1169 444)"/></g><g transform="translate(-884 -291)"><circle class="c" cx="13.5" cy="13.5" r="13.5" transform="translate(1169 444)"/></g><g transform="translate(-817 -291)"><circle class="c" cx="13.5" cy="13.5" r="13.5" transform="translate(1169 444)"/></g><g transform="translate(-750 -291)"><circle class="c" cx="13.5" cy="13.5" r="13.5" transform="translate(1169 444)"/></g><g transform="translate(-683 -291)"><circle class="c" cx="13.5" cy="13.5" r="13.5" transform="translate(1169 444)"/></g><g transform="translate(-1152 -223)"><circle class="c" cx="13.5" cy="13.5" r="13.5" transform="translate(1169 444)"/></g><g transform="translate(-1085 -223)"><circle class="c" cx="13.5" cy="13.5" r="13.5" transform="translate(1169 444)"/></g><g transform="translate(-1018 -223)"><circle class="c" cx="13.5" cy="13.5" r="13.5" transform="translate(1169 444)"/></g><g transform="translate(-951 -223)"><circle class="c" cx="13.5" cy="13.5" r="13.5" transform="translate(1169 444)"/></g><g transform="translate(-884 -223)"><circle class="c" cx="13.5" cy="13.5" r="13.5" transform="translate(1169 444)"/></g><g transform="translate(-817 -223)"><circle class="c" cx="13.5" cy="13.5" r="13.5" transform="translate(1169 444)"/></g><g transform="translate(-750 -223)"><circle class="c" cx="13.5" cy="13.5" r="13.5" transform="translate(1169 444)"/></g><g transform="translate(-683 -223)"><circle class="c" cx="13.5" cy="13.5" r="13.5" transform="translate(1169 444)"/></g><g transform="translate(-1152 -155)"><circle class="c" cx="13.5" cy="13.5" r="13.5" transform="translate(1169 444)"/></g><g transform="translate(-1085 -155)"><circle class="c" cx="13.5" cy="13.5" r="13.5" transform="translate(1169 444)"/></g><g transform="translate(-1018 -155)"><circle class="c" cx="13.5" cy="13.5" r="13.5" transform="translate(1169 444)"/></g><g transform="translate(-951 -155)"><circle class="c" cx="13.5" cy="13.5" r="13.5" transform="translate(1169 444)"/></g><g transform="translate(-884 -155)"><circle class="c" cx="13.5" cy="13.5" r="13.5" transform="translate(1169 444)"/></g><g transform="translate(-817 -155)"><circle class="c" cx="13.5" cy="13.5" r="13.5" transform="translate(1169 444)"/></g><g transform="translate(-750 -155)"><circle class="c" cx="13.5" cy="13.5" r="13.5" transform="translate(1169 444)"/></g><g transform="translate(-683 -155)"><circle class="c" cx="13.5" cy="13.5" r="13.5" transform="translate(1169 444)"/></g><g transform="translate(-1152 -87)"><circle class="c" cx="13.5" cy="13.5" r="13.5" transform="translate(1169 444)"/></g><g transform="translate(-1085 -87)"><circle class="c" cx="13.5" cy="13.5" r="13.5" transform="translate(1169 444)"/></g><g transform="translate(-1018 -87)"><circle class="c" cx="13.5" cy="13.5" r="13.5" transform="translate(1169 444)"/></g><g transform="translate(-951 -87)"><circle class="c" cx="13.5" cy="13.5" r="13.5" transform="translate(1169 444)"/></g><g transform="translate(-884 -87)"><circle class="c" cx="13.5" cy="13.5" r="13.5" transform="translate(1169 444)"/></g><g transform="translate(-817 -87)"><circle class="c" cx="13.5" cy="13.5" r="13.5" transform="translate(1169 444)"/></g><g transform="translate(-750 -87)"><circle class="c" cx="13.5" cy="13.5" r="13.5" transform="translate(1169 444)"/></g><g transform="translate(-683 -87)"><circle class="c" cx="13.5" cy="13.5" r="13.5" transform="translate(1169 444)"/></g><g transform="translate(-1152 -19)"><circle class="c" cx="13.5" cy="13.5" r="13.5" transform="translate(1169 444)"/></g><g transform="translate(-1085 -19)"><circle class="c" cx="13.5" cy="13.5" r="13.5" transform="translate(1169 444)"/></g><g transform="translate(-1018 -19)"><circle class="c" cx="13.5" cy="13.5" r="13.5" transform="translate(1169 444)"/></g><g transform="translate(-951 -19)"><circle class="c" cx="13.5" cy="13.5" r="13.5" transform="translate(1169 444)"/></g><g transform="translate(-884 -19)"><circle class="c" cx="13.5" cy="13.5" r="13.5" transform="translate(1169 444)"/></g><g transform="translate(-817 -19)"><circle class="c" cx="13.5" cy="13.5" r="13.5" transform="translate(1169 444)"/></g><g transform="translate(-750 -19)"><circle class="c" cx="13.5" cy="13.5" r="13.5" transform="translate(1169 444)"/></g><g transform="translate(-683 -19)"><circle class="c" cx="13.5" cy="13.5" r="13.5" transform="translate(1169 444)"/></g><g transform="translate(-1152 49)"><circle class="c" cx="13.5" cy="13.5" r="13.5" transform="translate(1169 444)"/></g><g transform="translate(-1085 49)"><circle class="c" cx="13.5" cy="13.5" r="13.5" transform="translate(1169 444)"/></g><g transform="translate(-1018 49)"><circle class="c" cx="13.5" cy="13.5" r="13.5" transform="translate(1169 444)"/></g><g transform="translate(-951 49)"><circle class="c" cx="13.5" cy="13.5" r="13.5" transform="translate(1169 444)"/></g><g transform="translate(-884 49)"><circle class="c" cx="13.5" cy="13.5" r="13.5" transform="translate(1169 444)"/></g><g transform="translate(-817 49)"><circle class="c" cx="13.5" cy="13.5" r="13.5" transform="translate(1169 444)"/></g><g transform="translate(-750 49)"><circle class="c" cx="13.5" cy="13.5" r="13.5" transform="translate(1169 444)"/></g><g transform="translate(-683 49)"><circle class="c" cx="13.5" cy="13.5" r="13.5" transform="translate(1169 444)"/></g><g transform="translate(-1152 117)"><circle class="c" cx="13.5" cy="13.5" r="13.5" transform="translate(1169 444)"/></g><g transform="translate(-1085 117)"><circle class="c" cx="13.5" cy="13.5" r="13.5" transform="translate(1169 444)"/></g><g transform="translate(-1018 117)"><circle class="c" cx="13.5" cy="13.5" r="13.5" transform="translate(1169 444)"/></g><g transform="translate(-951 117)"><circle class="c" cx="13.5" cy="13.5" r="13.5" transform="translate(1169 444)"/></g><g transform="translate(-884 117)"><circle class="c" cx="13.5" cy="13.5" r="13.5" transform="translate(1169 444)"/></g><g transform="translate(-817 117)"><circle class="c" cx="13.5" cy="13.5" r="13.5" transform="translate(1169 444)"/></g><g transform="translate(-750 117)"><circle class="c" cx="13.5" cy="13.5" r="13.5" transform="translate(1169 444)"/></g><g transform="translate(-683 117)"><circle class="c" cx="13.5" cy="13.5" r="13.5" transform="translate(1169 444)"/></g><g transform="translate(-1152 185)"><circle class="c" cx="13.5" cy="13.5" r="13.5" transform="translate(1169 444)"/></g><g transform="translate(-1085 185)"><circle class="c" cx="13.5" cy="13.5" r="13.5" transform="translate(1169 444)"/></g><g transform="translate(-1018 185)"><circle class="c" cx="13.5" cy="13.5" r="13.5" transform="translate(1169 444)"/></g><g transform="translate(-951 185)"><circle class="c" cx="13.5" cy="13.5" r="13.5" transform="translate(1169 444)"/></g><g transform="translate(-884 185)"><circle class="c" cx="13.5" cy="13.5" r="13.5" transform="translate(1169 444)"/></g><g transform="translate(-817 185)"><circle class="c" cx="13.5" cy="13.5" r="13.5" transform="translate(1169 444)"/></g><g transform="translate(-750 185)"><circle class="c" cx="13.5" cy="13.5" r="13.5" transform="translate(1169 444)"/></g><g transform="translate(-683 185)"><circle class="c" cx="13.5" cy="13.5" r="13.5" transform="translate(1169 444)"/></g></g></svg>