<svg xmlns="http://www.w3.org/2000/svg" xmlns:xlink="http://www.w3.org/1999/xlink" width="646" height="634" viewBox="0 0 646 634"><defs><style>.a{fill:none;}.b{opacity:0.163;clip-path:url(#a);}.c{fill:#fff;}</style><clipPath id="a"><rect class="a" width="646" height="634"/></clipPath></defs><g class="b"><g transform="translate(-1152 -427)"><circle class="c" cx="23.5" cy="23.5" r="23.5" transform="translate(1159 434)"/></g><g transform="translate(-1071 -427)"><circle class="c" cx="23.5" cy="23.5" r="23.5" transform="translate(1159 434)"/></g><g transform="translate(-990 -427)"><circle class="c" cx="23.5" cy="23.5" r="23.5" transform="translate(1159 434)"/></g><g transform="translate(-909 -427)"><circle class="c" cx="23.5" cy="23.5" r="23.5" transform="translate(1159 434)"/></g><g transform="translate(-828 -427)"><circle class="c" cx="23.5" cy="23.5" r="23.5" transform="translate(1159 434)"/></g><g transform="translate(-747 -427)"><circle class="c" cx="23.5" cy="23.5" r="23.5" transform="translate(1159 434)"/></g><g transform="translate(-666 -427)"><circle class="c" cx="23.5" cy="23.5" r="23.5" transform="translate(1159 434)"/></g><g transform="translate(-585 -427)"><circle class="c" cx="23.5" cy="23.5" r="23.5" transform="translate(1159 434)"/></g><g transform="translate(-1152 -346)"><circle class="c" cx="23.5" cy="23.5" r="23.5" transform="translate(1159 434)"/></g><g transform="translate(-1071 -346)"><circle class="c" cx="23.5" cy="23.5" r="23.5" transform="translate(1159 434)"/></g><g transform="translate(-990 -346)"><circle class="c" cx="23.5" cy="23.5" r="23.5" transform="translate(1159 434)"/></g><g transform="translate(-909 -346)"><circle class="c" cx="23.5" cy="23.5" r="23.5" transform="translate(1159 434)"/></g><g transform="translate(-828 -346)"><circle class="c" cx="23.5" cy="23.5" r="23.5" transform="translate(1159 434)"/></g><g transform="translate(-747 -346)"><circle class="c" cx="23.5" cy="23.5" r="23.5" transform="translate(1159 434)"/></g><g transform="translate(-666 -346)"><circle class="c" cx="23.5" cy="23.5" r="23.5" transform="translate(1159 434)"/></g><g transform="translate(-585 -346)"><circle class="c" cx="23.5" cy="23.5" r="23.5" transform="translate(1159 434)"/></g><g transform="translate(-1152 -265)"><circle class="c" cx="23.5" cy="23.5" r="23.5" transform="translate(1159 434)"/></g><g transform="translate(-1071 -265)"><circle class="c" cx="23.5" cy="23.5" r="23.5" transform="translate(1159 434)"/></g><g transform="translate(-990 -265)"><circle class="c" cx="23.5" cy="23.5" r="23.5" transform="translate(1159 434)"/></g><g transform="translate(-909 -265)"><circle class="c" cx="23.5" cy="23.5" r="23.5" transform="translate(1159 434)"/></g><g transform="translate(-828 -265)"><circle class="c" cx="23.5" cy="23.5" r="23.5" transform="translate(1159 434)"/></g><g transform="translate(-747 -265)"><circle class="c" cx="23.5" cy="23.5" r="23.5" transform="translate(1159 434)"/></g><g transform="translate(-666 -265)"><circle class="c" cx="23.5" cy="23.5" r="23.5" transform="translate(1159 434)"/></g><g transform="translate(-585 -265)"><circle class="c" cx="23.5" cy="23.5" r="23.5" transform="translate(1159 434)"/></g><g transform="translate(-1152 -184)"><circle class="c" cx="23.5" cy="23.5" r="23.5" transform="translate(1159 434)"/></g><g transform="translate(-1071 -184)"><circle class="c" cx="23.5" cy="23.5" r="23.5" transform="translate(1159 434)"/></g><g transform="translate(-990 -184)"><circle class="c" cx="23.5" cy="23.5" r="23.5" transform="translate(1159 434)"/></g><g transform="translate(-909 -184)"><circle class="c" cx="23.5" cy="23.5" r="23.5" transform="translate(1159 434)"/></g><g transform="translate(-828 -184)"><circle class="c" cx="23.5" cy="23.5" r="23.5" transform="translate(1159 434)"/></g><g transform="translate(-747 -184)"><circle class="c" cx="23.5" cy="23.5" r="23.5" transform="translate(1159 434)"/></g><g transform="translate(-666 -184)"><circle class="c" cx="23.5" cy="23.5" r="23.5" transform="translate(1159 434)"/></g><g transform="translate(-585 -184)"><circle class="c" cx="23.5" cy="23.5" r="23.5" transform="translate(1159 434)"/></g><g transform="translate(-1152 -103)"><circle class="c" cx="23.5" cy="23.5" r="23.5" transform="translate(1159 434)"/></g><g transform="translate(-1071 -103)"><circle class="c" cx="23.5" cy="23.5" r="23.5" transform="translate(1159 434)"/></g><g transform="translate(-990 -103)"><circle class="c" cx="23.5" cy="23.5" r="23.5" transform="translate(1159 434)"/></g><g transform="translate(-909 -103)"><circle class="c" cx="23.5" cy="23.5" r="23.5" transform="translate(1159 434)"/></g><g transform="translate(-828 -103)"><circle class="c" cx="23.5" cy="23.5" r="23.5" transform="translate(1159 434)"/></g><g transform="translate(-747 -103)"><circle class="c" cx="23.5" cy="23.5" r="23.5" transform="translate(1159 434)"/></g><g transform="translate(-666 -103)"><circle class="c" cx="23.5" cy="23.5" r="23.5" transform="translate(1159 434)"/></g><g transform="translate(-585 -103)"><circle class="c" cx="23.5" cy="23.5" r="23.5" transform="translate(1159 434)"/></g><g transform="translate(-1152 -22)"><circle class="c" cx="23.5" cy="23.5" r="23.5" transform="translate(1159 434)"/></g><g transform="translate(-1071 -22)"><circle class="c" cx="23.5" cy="23.5" r="23.5" transform="translate(1159 434)"/></g><g transform="translate(-990 -22)"><circle class="c" cx="23.5" cy="23.5" r="23.5" transform="translate(1159 434)"/></g><g transform="translate(-909 -22)"><circle class="c" cx="23.5" cy="23.5" r="23.5" transform="translate(1159 434)"/></g><g transform="translate(-828 -22)"><circle class="c" cx="23.5" cy="23.5" r="23.5" transform="translate(1159 434)"/></g><g transform="translate(-747 -22)"><circle class="c" cx="23.5" cy="23.5" r="23.5" transform="translate(1159 434)"/></g><g transform="translate(-666 -22)"><circle class="c" cx="23.5" cy="23.5" r="23.5" transform="translate(1159 434)"/></g><g transform="translate(-585 -22)"><circle class="c" cx="23.5" cy="23.5" r="23.5" transform="translate(1159 434)"/></g><g transform="translate(-1152 59)"><circle class="c" cx="23.5" cy="23.5" r="23.5" transform="translate(1159 434)"/></g><g transform="translate(-1071 59)"><circle class="c" cx="23.5" cy="23.5" r="23.5" transform="translate(1159 434)"/></g><g transform="translate(-990 59)"><circle class="c" cx="23.5" cy="23.5" r="23.5" transform="translate(1159 434)"/></g><g transform="translate(-909 59)"><circle class="c" cx="23.5" cy="23.5" r="23.5" transform="translate(1159 434)"/></g><g transform="translate(-828 59)"><circle class="c" cx="23.5" cy="23.5" r="23.5" transform="translate(1159 434)"/></g><g transform="translate(-747 59)"><circle class="c" cx="23.5" cy="23.5" r="23.5" transform="translate(1159 434)"/></g><g transform="translate(-666 59)"><circle class="c" cx="23.5" cy="23.5" r="23.5" transform="translate(1159 434)"/></g><g transform="translate(-585 59)"><circle class="c" cx="23.5" cy="23.5" r="23.5" transform="translate(1159 434)"/></g><g transform="translate(-1152 140)"><circle class="c" cx="23.5" cy="23.5" r="23.5" transform="translate(1159 434)"/></g><g transform="translate(-1071 140)"><circle class="c" cx="23.5" cy="23.5" r="23.5" transform="translate(1159 434)"/></g><g transform="translate(-990 140)"><circle class="c" cx="23.5" cy="23.5" r="23.5" transform="translate(1159 434)"/></g><g transform="translate(-909 140)"><circle class="c" cx="23.5" cy="23.5" r="23.5" transform="translate(1159 434)"/></g><g transform="translate(-828 140)"><circle class="c" cx="23.5" cy="23.5" r="23.5" transform="translate(1159 434)"/></g><g transform="translate(-747 140)"><circle class="c" cx="23.5" cy="23.5" r="23.5" transform="translate(1159 434)"/></g><g transform="translate(-666 140)"><circle class="c" cx="23.5" cy="23.5" r="23.5" transform="translate(1159 434)"/></g><g transform="translate(-585 140)"><circle class="c" cx="23.5" cy="23.5" r="23.5" transform="translate(1159 434)"/></g></g></svg>