<svg xmlns="http://www.w3.org/2000/svg" viewBox="0 0 144.43 142.37"><defs><style>.cls-1{fill:#fff;opacity:0;}.cls-2{fill:none;stroke:#000;stroke-linecap:round;stroke-miterlimit:10;stroke-width:5px;}</style></defs><title>FAQ</title><g id="Layer_2" data-name="Layer 2"><g id="Layer_1-2" data-name="Layer 1"><rect class="cls-1" width="144.43" height="142.37"/><path class="cls-2" d="M107.89,39.18a47.87,47.87,0,1,0,11,21.07"/><path d="M71.18,46.87a16.41,16.41,0,0,1,7.54,1.73,13.85,13.85,0,0,1,5.36,4.77,12.61,12.61,0,0,1,2,7A8.5,8.5,0,0,1,84.77,65a17.1,17.1,0,0,1-3.18,3.7c-1.27,1.11-2.53,2.14-3.77,3.11a21.17,21.17,0,0,0-3.12,2.91,4.29,4.29,0,0,0-1.17,3l.07,1.45H66.89V76.41a4.46,4.46,0,0,1,1.21-2.94,21.32,21.32,0,0,1,3-2.84q1.8-1.41,3.63-2.9a18.34,18.34,0,0,0,3-3.08A5.48,5.48,0,0,0,79,61.26a7.61,7.61,0,0,0-2.18-5.6q-2.18-2.22-6.32-2.22a13.33,13.33,0,0,0-6.89,1.63,19.32,19.32,0,0,0-5.22,4.81V52.34a14.79,14.79,0,0,1,5.33-3.88A17.63,17.63,0,0,1,71.18,46.87Zm-.63,38.94a4.85,4.85,0,0,1,4.85,4.84A4.73,4.73,0,0,1,74,94a4.77,4.77,0,0,1-6.85,0,4.79,4.79,0,0,1,0-6.81A4.66,4.66,0,0,1,70.55,85.81Z"/></g></g></svg>