<svg xmlns="http://www.w3.org/2000/svg" viewBox="0 0 144.43 142.37"><defs><style>.cls-1{fill:#fff;opacity:0;}</style></defs><title>settings</title><g id="Layer_2" data-name="Layer 2"><g id="Layer_1-2" data-name="Layer 1"><rect class="cls-1" width="144.43" height="142.37"/><g id="sjRRBE.tif"><path d="M36.94,98.08a10.19,10.19,0,0,0,.65.84l7.35,7.61,5.9-4.38c3.89-2.9,9.5-2.78,12.59.95,1.44,1.72,1.59,4.55,2.18,6.91.33,1.31.23,2.72.57,4a2.07,2.07,0,0,0,1.46,1.24c3,.12,6.07.14,9.1,0,.58,0,1.45-1,1.58-1.66.47-2.36.7-4.78,1-7.18a5.85,5.85,0,0,1,3.3-4.54c4.67-2.75,8.62-2.3,12.7,1.45,3.78,3.46,4,3.18,7.68-.51,1.12-1.13,2.23-2.28,3.4-3.35.94-.87,1.11-1.59.19-2.68-1.56-1.84-3-3.83-4.42-5.77a5.34,5.34,0,0,1-.75-5.57c.4-1,.87-2,1.18-3,.94-3,3.17-4.22,6.14-4.51A55,55,0,0,0,115,77a2.13,2.13,0,0,0,1.34-1.52c.13-3.25.07-6.51.07-10.12-3.08-.5-6.09-1.06-9.11-1.47a5.09,5.09,0,0,1-4.45-3.64c-.36-1-.83-2-1.25-2.93a5.77,5.77,0,0,1,.75-6.39c1.49-1.81,2.83-3.75,4.28-5.59a1.58,1.58,0,0,0-.16-2.51c-2-1.92-4-3.92-6-5.94A1.59,1.59,0,0,0,98,36.73c-1.82,1.47-3.75,2.82-5.6,4.28s-3.79,1.56-6.15.89c-5.12-1.46-7.28-4.6-7.48-9.86C78.55,27,78.24,27,73.06,27a45.58,45.58,0,0,0-5.23.07,2.42,2.42,0,0,0-1.66,1.46c-.47,2.37-.65,4.79-1,7.18a6.11,6.11,0,0,1-3.42,4.71c-4.53,2.57-8.29,2.28-12.33-1.29s-4.39-3.35-8.24.56c-.69.71-1.38,1.41-2.08,2.1-1.1,1.08-2.5,1.91-1.74,3.95.17.47-.88,2-1.47,2a3.2,3.2,0,0,1-2.6-1.17,4.44,4.44,0,0,1,.43-5.68c2.65-2.82,5.39-5.55,8.19-8.21a4.69,4.69,0,0,1,5.89-.47C50,33.7,52.05,35.39,54.18,37s6.09-.07,6.53-2.5c.46-2.6.72-5.24,1.26-7.82a4.91,4.91,0,0,1,5.16-4.19c3.33,0,6.68,0,10,0,3,0,4.87,1.52,5.42,4.45.46,2.52.69,5.09,1.15,7.62.44,2.37,4.45,3.91,6.4,2.5s3.74-2.84,5.64-4.22c2.77-2,5.09-1.82,7.49.58,2.19,2.19,4.42,4.36,6.61,6.56,2.46,2.47,2.65,4.93.62,7.68a43.9,43.9,0,0,1-3,4c-1.75,1.86-2.22,3.64-.89,6,.75,1.34,1.4,2.08,3,2.18,2.4.16,4.8.53,7.18.92a4.87,4.87,0,0,1,4,4.81c0,3.57,0,7.13,0,10.7,0,3-1.51,4.81-4.5,5.29-2.39.39-4.78.71-7.18,1s-4.26,4.43-2.83,6.39,3,3.84,4.34,5.82c1.94,2.74,1.71,5.15-.64,7.51-2.2,2.21-4.39,4.41-6.6,6.6-2.44,2.41-4.72,2.6-7.5.59-1.91-1.38-3.74-2.85-5.64-4.24s-6,.14-6.48,2.48c-.49,2.52-.75,5.09-1.21,7.62-.53,3-2.26,4.48-5.32,4.57-3.33.09-6.68.1-10,0-3-.09-4.71-1.69-5.27-4.65-.47-2.45-.74-4.93-1.2-7.38-.48-2.62-4.54-4.08-6.67-2.46-1.81,1.38-3.62,2.75-5.46,4.09-2.65,1.93-5,1.8-7.32-.49s-4.72-4.7-7-7.1a4.91,4.91,0,0,1-.59-6.78A56.23,56.23,0,0,1,38,89.32c1.89-2.09.1-3.7-.54-5.36-.26-.68-1.5-1.2-2.38-1.38-2.29-.47-4.63-.63-6.94-1-2.95-.53-4.42-2.33-4.45-5.36q-.06-5.24,0-10.47a5,5,0,0,1,4.34-5c2.47-.34,5-.51,7.4-1a3.92,3.92,0,0,0,2.24-1.74c.71-1.14.86-2.63,1.6-3.73.52-.77,1.63-1.15,2.49-1.7.54.86,1.58,1.73,1.56,2.58-.07,5.35-3.45,8.76-8.79,9.28a35.55,35.55,0,0,0-5.33.91A2,2,0,0,0,28,66.75c-.12,2.88-.15,5.77,0,8.65A2.35,2.35,0,0,0,29.52,77c2.73.59,5.5.93,8.25,1.39a4.73,4.73,0,0,1,3.75,3.25c.47,1.21,1,2.39,1.45,3.59a5.62,5.62,0,0,1-.72,5.8C40.53,93.36,38.79,95.64,36.94,98.08Z"/><path d="M72,49.25c7.32-.12,13,3,17.54,8.3,1,1.21,1.81,2.58.13,3.93s-2.56.18-3.57-1C78,51.29,66,51.16,58.44,60.49c-4.39,5.46-5,11.78-1.95,18.1q4.47,9.12,14.9,9.93c8.87.69,18.65-6.69,18.37-18.39,0-1.62.21-3,2.15-3s2.19,1.51,2.3,3C95,80,87.64,89.86,77.65,92.41,63.58,96,49.64,85,50.2,70.48,50.68,58,61,48.91,72,49.25Z"/></g></g></g></svg>