<svg xmlns="http://www.w3.org/2000/svg" viewBox="0 0 145 145"><defs><style>.cls-1,.cls-2{fill:#fff;stroke:#ef0000;}.cls-1,.cls-2,.cls-3,.cls-4{stroke-miterlimit:10;}.cls-1{opacity:0;}.cls-3,.cls-4{fill:none;stroke:#000;stroke-width:5px;}.cls-3{stroke-linecap:round;}</style></defs><title>wallet</title><g id="Layer_2" data-name="Layer 2"><g id="Layer_1-2" data-name="Layer 1"><rect class="cls-1" x="0.5" y="0.5" width="144" height="144"/><path class="cls-2" d="M20.28,39V38.1A10.24,10.24,0,0,1,29.16,28,11.31,11.31,0,0,0,20.28,39Z"/><path class="cls-3" d="M124.72,61.79v43.86a11.49,11.49,0,0,1-11.49,11.49H32.13a11.85,11.85,0,0,1-11.85-11.85V39a11.31,11.31,0,0,0,11.31,11.3h81.64A11.5,11.5,0,0,1,124.72,61.79Z"/><path class="cls-3" d="M118.73,37.57V50.29H31.94A11.53,11.53,0,0,1,20.31,39.73,11.29,11.29,0,0,1,29.16,28a10.24,10.24,0,0,1,1.36-.09H109A9.71,9.71,0,0,1,118.73,37.57Z"/><circle class="cls-4" cx="103.97" cy="69.65" r="9.98"/></g></g></svg>